<svg width="22" height="22" viewBox="0 0 22 22" fill="none" xmlns="http://www.w3.org/2000/svg">
<path d="M10.9999 13.2001C14.0332 13.2001 16.4999 11.2267 16.4999 8.80006C16.4999 6.37344 14.0332 4.40002 10.9999 4.40002C7.96672 4.40002 5.5 6.37344 5.5 8.80006C5.5 11.2267 7.96672 13.2001 10.9999 13.2001ZM10.9999 6.60004C12.5165 6.60004 13.7499 7.58675 13.7499 8.80006C13.7499 10.0134 12.5165 11.0001 10.9999 11.0001C9.48333 11.0001 8.24997 10.0134 8.24997 8.80006C8.24997 7.58675 9.48333 6.60004 10.9999 6.60004Z" fill="white"/>
<path d="M10.2025 21.7956C10.4352 21.9285 10.714 22 11 22C11.286 22 11.5648 21.9285 11.7975 21.7956C12.2155 21.5591 22.0398 15.8841 21.9999 8.80007C21.9999 3.94793 17.0651 0 11 0C4.93494 0 0.000121051 3.94793 0.000121051 8.79457C-0.0397535 15.8841 9.78451 21.5591 10.2025 21.7956ZM11 2.20002C15.5498 2.20002 19.2499 5.16014 19.2499 8.80557C19.2788 13.6874 13.2165 18.0709 11 19.5087C8.7849 18.0698 2.72122 13.6852 2.75009 8.80007C2.75009 5.16014 6.45018 2.20002 11 2.20002Z" fill="white"/>
</svg>
