<svg width="22" height="22" viewBox="0 0 22 22" fill="none" xmlns="http://www.w3.org/2000/svg">
<path fill-rule="evenodd" clip-rule="evenodd" d="M10.2986 0.300294C10.1333 0.465456 9.99804 0.902635 9.99804 1.2715C9.99804 1.86082 9.85676 1.97819 8.83726 2.23469C5.51725 3.06976 3.05242 5.52817 2.21879 8.83616C1.96228 9.85341 1.8443 9.99054 1.16723 10.0584C-0.389075 10.2145 -0.389075 11.8071 1.16723 11.9632C1.8443 12.031 1.96228 12.1682 2.21879 13.1854C3.05092 16.4877 5.51775 18.9521 8.82323 19.7834C9.84148 20.0396 9.97875 20.1575 10.0466 20.8339C10.2029 22.3887 11.7971 22.3887 11.9534 20.8339C12.0213 20.1575 12.1585 20.0396 13.1768 19.7834C16.4822 18.9521 18.9491 16.4877 19.7812 13.1854C20.0377 12.1682 20.1557 12.031 20.8328 11.9632C22.3891 11.8071 22.3891 10.2145 20.8328 10.0584C20.1557 9.99054 20.0377 9.85341 19.7812 8.83616C18.9476 5.52817 16.4827 3.06976 13.1627 2.23469C12.1432 1.97819 12.002 1.86082 12.002 1.2715C12.002 0.515005 11.5962 0 11 0C10.7796 0 10.4639 0.135132 10.2986 0.300294ZM14.2456 4.94685C16.8562 6.26239 18.3394 9.2358 17.8083 12.0886C17.2748 14.9554 15.5447 16.8788 12.7765 17.6828C8.05673 19.0534 3.29414 14.7542 4.19165 9.93299C5.09242 5.09349 9.8525 2.73293 14.2456 4.94685ZM8.97653 7.57592C7.00367 8.90398 6.38545 11.2886 7.56176 13.0323C9.35778 15.6949 12.6422 15.6949 14.4382 13.0323C16.6674 9.72778 12.2843 5.34899 8.97653 7.57592Z" fill="white"/>
</svg>
